<svg width="1106" height="783" viewBox="0 0 1106 783" fill="none" xmlns="http://www.w3.org/2000/svg">
<g clip-path="url(#clip0)">
<path opacity="0.1" d="M367.38 782.3C421.195 782.3 464.82 775.293 464.82 766.65C464.82 758.007 421.195 751 367.38 751C313.565 751 269.94 758.007 269.94 766.65C269.94 775.293 313.565 782.3 367.38 782.3Z" fill="#6C63FF"/>
<path opacity="0.1" d="M13.84 338.2H115.33V476.53H21.27C21.02 477.95 20.78 479.38 20.52 480.81H115.33V592.37C115.16 592.32 115.01 592.26 114.85 592.2C112.17 591.14 109.51 590.02 106.85 588.82L105.15 588.05C102.483 586.79 99.8167 585.457 97.15 584.05C96.22 583.56 95.29 583.05 94.37 582.53C79.5658 574.237 66.117 563.729 54.49 551.37C54.15 551.04 53.83 550.69 53.49 550.37C51.87 548.61 50.28 546.83 48.74 545.01L47.04 543.01C45.22 540.78 43.46 538.49 41.75 536.17C41.5 535.83 41.26 535.49 41 535.17C34.0455 525.527 28.271 515.086 23.8 504.07C23.66 503.74 23.54 503.38 23.41 503.07C22.0367 499.537 20.82 495.97 19.76 492.37C19.3 490.86 18.86 489.37 18.48 487.8C18.34 487.34 18.22 486.89 18.11 486.44C12.43 464.27 11.76 441.24 11.76 418.37C11.76 415.7 11.76 413.02 11.76 410.37C11.76 401.12 11.87 391.81 12.03 382.51C12.03 380.1 12.13 377.7 12.18 375.28C12.32 369.14 12.52 363 12.78 356.86C12.84 355.15 12.92 353.45 13.01 351.75C13.01 350.77 13.06 349.79 13.16 348.81C13.4 345.25 13.6 341.72 13.84 338.2Z" fill="#6C63FF"/>
<path opacity="0.1" d="M115.33 184.18H59.66C68.7095 170.016 78.5971 156.405 89.27 143.42C97.54 133.26 106.27 123.36 115.33 113.82V184.18Z" fill="#6C63FF"/>
<path opacity="0.1" d="M115.33 188.46V333.92H14.16C14.16 333.5 14.23 333.07 14.26 332.65C14.35 331.5 14.44 330.35 14.54 329.21C14.65 327.87 14.77 326.52 14.9 325.21C15.03 323.9 15.17 322.3 15.32 320.85C15.47 319.4 15.61 317.93 15.78 316.48C15.95 315.03 16.1 313.58 16.28 312.14C16.46 310.7 16.62 309.24 16.81 307.8C16.96 306.6 17.12 305.41 17.28 304.21C17.51 302.52 17.75 300.82 18.01 299.14C18.01 298.89 18.08 298.63 18.12 298.39C19.9452 286.092 22.4322 273.901 25.57 261.87C28.8546 249.25 33.0489 236.884 38.12 224.87C43.5097 212.302 49.8202 200.149 57 188.51L115.33 188.46Z" fill="#6C63FF"/>
<path opacity="0.1" d="M139.56 338.19V476.53H356.33V338.19H139.56ZM139.56 480.8V599.6C140.8 599.86 142.03 600.11 143.25 600.32C144.91 600.64 146.56 600.93 148.25 601.18C148.57 601.23 148.9 601.28 149.25 601.31C149.91 601.42 150.59 601.51 151.25 601.6C152.92 601.83 154.58 602.02 156.25 602.17C157.04 602.25 157.84 602.32 158.64 602.38L160.57 602.53C161.62 602.61 162.66 602.67 163.69 602.7C164.33 602.7 164.97 602.76 165.63 602.78C166.13 602.78 166.63 602.78 167.15 602.78C167.67 602.78 168.41 602.78 169.04 602.78C169.9 602.78 170.76 602.78 171.61 602.78H172.76C173.62 602.78 174.48 602.78 175.33 602.7H175.39C175.98 602.7 176.58 602.7 177.18 602.62C177.347 602.63 177.514 602.63 177.68 602.62C178.18 602.62 178.68 602.62 179.16 602.55H179.51L182.86 602.29C183.96 602.19 185.07 602.06 186.19 601.94L188.47 601.67C197.746 600.37 206.919 598.419 215.92 595.83C236.14 590.19 255.92 582.3 276.13 576.52C302.26 569.07 331.13 565.41 356.38 574.52V480.8H139.56ZM356.33 184.18V0.0100062C332.597 -0.247117 308.929 2.52869 285.9 8.27001C231.01 22.06 181.76 51.97 139.56 90.17V184.17H150.44V188.44H139.56V333.92H356.33V188.45H195.11V184.18H356.33ZM634.76 121.97C621.18 121.49 607.68 117.19 595.47 110.55C572.12 97.85 553.47 78.24 532.63 61.69C489.33 27.22 435.63 6.42001 380.54 1.26001V184.18H689.99L690.76 183.37L634.76 121.97ZM662.95 116.97L692.84 149.77V108.37C682.83 109.61 674.06 112.56 662.99 116.93L662.95 116.97ZM692.84 629.1V480.8H629.15C628.98 480.17 628.81 479.53 628.61 478.89C628.8 479.53 628.96 480.17 629.14 480.8H380.58V588.05C382.94 589.8 385.27 591.64 387.58 593.51C390.07 595.51 392.53 597.62 395 599.69L397.49 601.75C398.68 602.75 399.88 603.75 401.09 604.69C403.49 606.637 405.913 608.557 408.36 610.45C409.57 611.45 410.81 612.35 412.04 613.29C431.567 628.22 452.166 641.693 473.67 653.6C478.49 656.267 483.353 658.87 488.26 661.41C491.53 663.08 494.82 664.74 498.12 666.35C503.08 668.77 508.08 671.103 513.12 673.35C559.586 694.208 608.721 708.521 659.12 715.88C670.313 717.533 681.55 718.833 692.83 719.78V629.09H693.83L692.84 629.1ZM380.58 188.45V333.92H692.88V188.45H380.58ZM380.58 338.19V476.53H692.88V338.19H380.58ZM717.12 108.19V154.37L755.27 112.51C742.63 110.47 729.913 109.013 717.12 108.14V108.19ZM717.12 338.24V476.53H1020.87V338.19L717.12 338.24ZM1019.76 640.08L1020.83 480.8H717.12V721.37C736.685 722.192 756.28 721.958 775.82 720.67H776.16C785.493 720.083 794.783 719.23 804.03 718.11H804.24C853.571 712.369 901.807 699.498 947.44 679.9L1019.76 640.08ZM1079.44 360.97C1078.3 358.28 1077.11 355.61 1075.9 352.97C1073.64 347.97 1071.25 343.11 1068.79 338.25H1045.09V476.53H1105.01C1104.98 437.37 1095.07 397.37 1079.47 360.92L1079.44 360.97ZM1045.09 480.85V617.85C1061.97 601.67 1076.23 583.16 1086.5 562C1098.85 536.52 1104.5 508.93 1104.96 480.83L1045.09 480.85ZM1045.09 297.93V333.93H1066.57C1060.07 321.537 1052.91 309.503 1045.12 297.88L1045.09 297.93ZM839.09 135.33C837.51 134.73 835.93 134.12 834.34 133.53C817.571 127.337 800.435 122.187 783.03 118.11L724.65 182.18L723.53 183.37L724.28 184.19H932.06C903.122 164.27 871.924 147.853 839.12 135.28L839.09 135.33ZM938.15 188.5H721.38L717.12 192.4V333.92H754.46H754.52H1020.91V265.37C996.812 236.226 968.999 210.366 938.18 188.45L938.15 188.5Z" fill="#6C63FF"/>
<path opacity="0.1" d="M115.33 261.83V333.92H14.16C14.16 333.5 14.23 333.07 14.26 332.65C14.35 331.5 14.44 330.35 14.54 329.21C14.65 327.87 14.77 326.52 14.9 325.21C15.03 323.9 15.17 322.3 15.32 320.85C15.47 319.4 15.61 317.93 15.78 316.48C15.95 315.03 16.1 313.58 16.28 312.14C16.46 310.7 16.62 309.24 16.81 307.8C16.96 306.6 17.12 305.41 17.28 304.21C17.51 302.52 17.75 300.82 18.01 299.14C18.01 298.89 18.08 298.63 18.12 298.39C19.9452 286.092 22.4322 273.901 25.57 261.87L115.33 261.83Z" fill="#6C63FF"/>
<path opacity="0.1" d="M13.84 338.2H115.33V476.53H21.27C21.02 477.95 20.78 479.38 20.52 480.81H115.33V592.37C115.16 592.32 115.01 592.26 114.85 592.2C112.17 591.14 109.51 590.02 106.85 588.82L105.15 588.05C102.483 586.79 99.8167 585.457 97.15 584.05C96.22 583.56 95.29 583.05 94.37 582.53C79.5658 574.237 66.117 563.729 54.49 551.37C54.15 551.04 53.83 550.69 53.49 550.37C51.87 548.61 50.28 546.83 48.74 545.01L47.04 543.01C45.22 540.78 43.46 538.49 41.75 536.17C41.5 535.83 41.26 535.49 41 535.17C34.0455 525.527 28.271 515.086 23.8 504.07C23.66 503.74 23.54 503.38 23.41 503.07C22.0367 499.537 20.82 495.97 19.76 492.37C19.3 490.86 18.86 489.37 18.48 487.8C18.34 487.34 18.22 486.89 18.11 486.44C12.43 464.27 11.76 441.24 11.76 418.37C11.76 415.7 11.76 413.02 11.76 410.37C11.76 401.12 11.87 391.81 12.03 382.51C12.03 380.1 12.13 377.7 12.18 375.28C12.32 369.14 12.52 363 12.78 356.86C12.84 355.15 12.92 353.45 13.01 351.75C13.01 350.77 13.06 349.79 13.16 348.81C13.4 345.25 13.6 341.72 13.84 338.2Z" fill="#6C63FF"/>
<path opacity="0.1" d="M215.87 209.28V333.92H139.56V209.28H150.44V167.08H195.1V209.28H215.87Z" fill="#6C63FF"/>
<path opacity="0.1" d="M215.87 338.19H139.57V476.52H215.87V338.19Z" fill="#6C63FF"/>
<path opacity="0.1" d="M139.56 480.81H215.87V595.81C206.869 598.397 197.696 600.345 188.42 601.64L186.14 601.92C185.02 602.05 183.91 602.16 182.81 602.27C181.71 602.38 180.57 602.46 179.46 602.53H179.11C178.63 602.53 178.11 602.59 177.64 602.6H177.13C176.53 602.6 175.93 602.66 175.33 602.68C174.48 602.73 173.63 602.74 172.76 602.75C172.39 602.75 172.04 602.75 171.67 602.75C170.81 602.75 169.96 602.75 169.1 602.75H167.21C166.7 602.75 166.21 602.75 165.68 602.75L163.75 602.68C162.75 602.68 161.67 602.57 160.63 602.5L158.71 602.36L156.32 602.14C154.64 601.99 152.97 601.8 151.32 601.57L149.32 601.29L148.32 601.15C146.65 600.89 145 600.61 143.32 600.29C142.09 600.08 140.87 599.82 139.63 599.57L139.56 480.81Z" fill="#6C63FF"/>
<path opacity="0.1" d="M692.88 194.56H629.96V333.91H692.88V194.56Z" fill="#6C63FF"/>
<path opacity="0.1" d="M692.89 338.19V476.53H380.58V416.86H546.93V452.06H629.96V338.19H692.89Z" fill="#6C63FF"/>
<path opacity="0.1" d="M693.88 629.13H692.88V719.88C681.613 718.927 670.38 717.63 659.18 715.99C608.756 708.608 559.601 694.264 513.12 673.37C499.7 667.33 486.553 660.737 473.68 653.59C452.176 641.677 431.575 628.204 412.04 613.28C407.133 609.52 402.29 605.673 397.51 601.74C394.2 599.01 390.91 596.21 387.58 593.49C385.27 591.62 382.94 589.78 380.58 588.02V480.81H629.13C628.96 480.17 628.79 479.53 628.61 478.9C628.8 479.53 628.98 480.17 629.15 480.81H692.88V629.07C693.22 629.08 693.55 629.11 693.88 629.13Z" fill="#6C63FF"/>
<path opacity="0.1" d="M856.98 184.18H815.98V171.44H834.36V133.49C835.953 134.07 837.54 134.667 839.12 135.28V171.44H856.98V184.18Z" fill="#6C63FF"/>
<path opacity="0.1" d="M955.76 333.92H754.48C754.48 333.92 754.48 333.92 754.55 333.97L754.46 333.92H717.12V194.57H727.7V297.57H776.05V236.57H815.99V188.46H856.99V236.61H896.93V297.61H955.76V333.92Z" fill="#6C63FF"/>
<path opacity="0.1" d="M717.12 338.19V476.53H955.76V338.19H717.12ZM1020.54 639.37L1020.87 529.87H955.76V480.87H717.12V721.37C736.685 722.192 756.28 721.958 775.82 720.67H776.16C785.493 720.083 794.783 719.23 804.03 718.11H804.24C853.571 712.369 901.807 699.498 947.44 679.9" fill="#6C63FF"/>
<path opacity="0.1" d="M1049.33 480.81H1105C1104.51 508.9 1098.87 536.49 1086.53 561.97C1076.26 583.14 1061.99 601.65 1045.13 617.82V529.82H1049.33V480.81Z" fill="#6C63FF"/>
<path opacity="0.1" d="M1105.03 476.53H1049.33V360.92H1079.47C1095.07 397.37 1104.98 437.37 1105.03 476.53Z" fill="#6C63FF"/>
<path opacity="0.1" d="M692.89 233.3H659.18V276.99H692.89V233.3Z" fill="#6C63FF"/>
<path opacity="0.1" d="M692.89 323.86H659.18V333.92H692.89V323.86Z" fill="#6C63FF"/>
<path opacity="0.1" d="M692.89 338.19H659.18V367.54H692.89V338.19Z" fill="#6C63FF"/>
<path opacity="0.1" d="M692.89 414.42H659.18V458.11H692.89V414.42Z" fill="#6C63FF"/>
<path opacity="0.1" d="M692.89 504.98H659.18V548.67H692.89V504.98Z" fill="#6C63FF"/>
<path opacity="0.1" d="M692.88 629.07C693.22 629.07 693.55 629.07 693.88 629.13H692.88V639.28H659.18V595.54H692.88V629.07Z" fill="#6C63FF"/>
<path opacity="0.1" d="M692.88 686.08V719.83C681.613 718.877 670.38 717.58 659.18 715.94V686.08H692.88Z" fill="#6C63FF"/>
<path opacity="0.1" d="M525.05 473.32H380.58V476.53H525.05V473.32Z" fill="#6C63FF"/>
<path opacity="0.1" d="M525.05 480.8H380.58V493.1H525.05V480.8Z" fill="#6C63FF"/>
<path opacity="0.1" d="M525.05 533.42H380.58V553.2H525.05V533.42Z" fill="#6C63FF"/>
<path opacity="0.1" d="M525.04 593.52V613.3H412.04C407.133 609.553 402.287 605.707 397.5 601.76C394.19 599.03 390.91 596.23 387.57 593.52H525.04Z" fill="#6C63FF"/>
<path opacity="0.1" d="M525.04 653.61V673.37H513.11C499.703 667.323 486.56 660.727 473.68 653.58L525.04 653.61Z" fill="#6C63FF"/>
<path opacity="0.1" d="M804.27 351.6H775.83V380.04H804.27V351.6Z" fill="#6C63FF"/>
<path opacity="0.1" d="M188.49 219.09H160.05V247.53H188.49V219.09Z" fill="#6C63FF"/>
<path opacity="0.1" d="M188.49 285.15H160.05V313.59H188.49V285.15Z" fill="#6C63FF"/>
<path opacity="0.1" d="M188.49 351.21H160.05V379.65H188.49V351.21Z" fill="#6C63FF"/>
<path opacity="0.1" d="M188.49 417.26H160.05V445.7H188.49V417.26Z" fill="#6C63FF"/>
<path opacity="0.1" d="M188.49 483.32H160.05V511.76H188.49V483.32Z" fill="#6C63FF"/>
<path opacity="0.1" d="M188.49 549.38H160.05V577.82H188.49V549.38Z" fill="#6C63FF"/>
<path opacity="0.1" d="M912.84 351.6H884.4V380.04H912.84V351.6Z" fill="#6C63FF"/>
<path opacity="0.1" d="M804.27 421.75H775.83V450.19H804.27V421.75Z" fill="#6C63FF"/>
<path opacity="0.1" d="M912.84 421.75H884.4V450.19H912.84V421.75Z" fill="#6C63FF"/>
<path opacity="0.1" d="M804.27 491.89H775.83V520.33H804.27V491.89Z" fill="#6C63FF"/>
<path opacity="0.1" d="M912.84 491.89H884.4V520.33H912.84V491.89Z" fill="#6C63FF"/>
<path opacity="0.1" d="M804.27 562.04H775.83V590.48H804.27V562.04Z" fill="#6C63FF"/>
<path opacity="0.1" d="M912.84 562.04H884.4V590.48H912.84V562.04Z" fill="#6C63FF"/>
<path opacity="0.1" d="M804.27 632.19H775.83V660.63H804.27V632.19Z" fill="#6C63FF"/>
<path opacity="0.1" d="M912.84 632.19H884.4V660.63H912.84V632.19Z" fill="#6C63FF"/>
<path opacity="0.1" d="M775.83 720.67V702.33H804.26V718.06L775.83 720.67Z" fill="#6C63FF"/>
<path opacity="0.1" d="M18 298.37V314.64H115.33V298.37H18ZM27.7 313.62H19.76V299.37H27.76L27.7 313.62ZM37.39 313.62H29.39V299.37H37.39V313.62ZM47.06 313.62H39.06V299.37H47.06V313.62ZM56.75 313.62H48.76V299.37H56.76L56.75 313.62ZM66.43 313.62H58.43V299.37H66.43V313.62ZM76.12 313.62H68.12V299.37H76.12V313.62ZM85.81 313.62H77.81V299.37H85.81V313.62ZM95.49 313.62H87.49V299.37H95.49V313.62ZM105.17 313.62H97.17V299.37H105.17V313.62ZM114.85 313.62H106.85V299.37H114.85V313.62Z" fill="#6C63FF"/>
<path opacity="0.1" d="M18 345.71V361.98H115.33V345.71H18ZM27.7 360.95H19.76V346.74H27.76L27.7 360.95ZM37.39 360.95H29.39V346.74H37.39V360.95ZM47.06 360.95H39.06V346.74H47.06V360.95ZM56.75 360.95H48.76V346.74H56.76L56.75 360.95ZM66.43 360.95H58.43V346.74H66.43V360.95ZM76.12 360.95H68.12V346.74H76.12V360.95ZM85.81 360.95H77.81V346.74H85.81V360.95ZM95.49 360.95H87.49V346.74H95.49V360.95ZM105.17 360.95H97.17V346.74H105.17V360.95ZM114.85 360.95H106.85V346.74H114.85V360.95Z" fill="#6C63FF"/>
<path opacity="0.1" d="M18 393.07V409.37H115.33V393.07H18ZM27.7 408.31H19.76V394.09H27.76L27.7 408.31ZM37.39 408.31H29.39V394.09H37.39V408.31ZM47.06 408.31H39.06V394.09H47.06V408.31ZM56.75 408.31H48.76V394.09H56.76L56.75 408.31ZM66.43 408.31H58.43V394.09H66.43V408.31ZM76.12 408.31H68.12V394.09H76.12V408.31ZM85.81 408.31H77.81V394.09H85.81V408.31ZM95.49 408.31H87.49V394.09H95.49V408.31ZM105.17 408.31H97.17V394.09H105.17V408.31ZM114.85 408.31H106.85V394.09H114.85V408.31Z" fill="#6C63FF"/>
<path opacity="0.1" d="M18 440.43V456.68H115.33V440.43H18ZM27.7 455.67H19.76V441.44H27.76L27.7 455.67ZM37.39 455.67H29.39V441.44H37.39V455.67ZM47.06 455.67H39.06V441.44H47.06V455.67ZM56.75 455.67H48.76V441.44H56.76L56.75 455.67ZM66.43 455.67H58.43V441.44H66.43V455.67ZM76.12 455.67H68.12V441.44H76.12V455.67ZM85.81 455.67H77.81V441.44H85.81V455.67ZM95.49 455.67H87.49V441.44H95.49V455.67ZM105.17 455.67H97.17V441.44H105.17V455.67ZM114.85 455.67H106.85V441.44H114.85V455.67Z" fill="#6C63FF"/>
<path opacity="0.1" d="M18.42 487.78C18.81 489.31 19.25 490.84 19.71 492.35V488.8H27.71V503.02H23.43C23.56 503.35 23.69 503.71 23.82 504.02H115.33V487.78H18.42ZM37.42 503.02H29.42V488.8H37.42V503.02ZM47.09 503.02H39.09V488.8H47.09V503.02ZM56.78 503.02H48.76V488.8H56.76L56.78 503.02ZM66.46 503.02H58.46V488.8H66.46V503.02ZM76.15 503.02H68.15V488.8H76.15V503.02ZM85.84 503.02H77.84V488.8H85.84V503.02ZM95.52 503.02H87.52V488.8H95.52V503.02ZM105.2 503.02H97.2V488.8H105.2V503.02ZM114.88 503.02H106.88V488.8H114.88V503.02Z" fill="#6C63FF"/>
<path opacity="0.1" d="M41.02 535.14C41.27 535.46 41.51 535.82 41.77 536.14H47.06V542.97C47.63 543.65 48.19 544.33 48.77 544.97V536.1H56.77V550.37H53.53C53.85 550.7 54.16 551.05 54.53 551.37H115.36V535.14H41.02ZM66.43 550.37H58.43V536.16H66.43V550.37ZM76.12 550.37H68.12V536.16H76.12V550.37ZM85.81 550.37H77.81V536.16H85.81V550.37ZM95.49 550.37H87.49V536.16H95.49V550.37ZM105.17 550.37H97.17V536.16H105.17V550.37ZM114.85 550.37H106.85V536.16H114.85V550.37Z" fill="#6C63FF"/>
<path opacity="0.1" d="M94.41 582.49C95.32 583.01 96.25 583.49 97.19 584.01V583.51H105.19V588.01L106.89 588.8V583.51H114.89V592.16C115.043 592.236 115.204 592.297 115.37 592.34V582.49H94.41Z" fill="#6C63FF"/>
<path opacity="0.1" d="M754.48 333.92H754.54H754.48ZM692.88 629.06H693.88H692.88ZM628.61 478.89C628.8 479.53 628.96 480.17 629.14 480.8C628.98 480.17 628.81 479.53 628.61 478.89ZM754.48 333.89H754.54H754.48ZM150.48 184.15V188.42H195.15V184.15H150.48ZM692.88 629.06H693.88H692.88ZM628.61 478.89C628.8 479.53 628.96 480.17 629.14 480.8C628.98 480.17 628.81 479.53 628.61 478.89ZM754.48 333.89H754.54H754.48ZM692.88 629.03H693.88H692.88ZM628.61 478.89C628.8 479.53 628.96 480.17 629.14 480.8C628.98 480.17 628.81 479.53 628.61 478.89Z" fill="#6C63FF"/>
<path opacity="0.1" d="M387.97 701.16C387.97 701.16 396.52 700.06 403.7 707.79C410.88 715.52 387.97 701.16 387.97 701.16Z" fill="black"/>
<g opacity="0.1">
<path opacity="0.1" d="M400.48 217.55C399.25 218.61 397.67 219.37 396.85 220.78C396.15 221.99 396.13 223.48 395.57 224.78C395.01 226.08 393.38 227.14 392.25 226.32C391.99 217.32 387.55 208.87 382.1 201.67C380.576 199.497 378.724 197.574 376.61 195.97C374.47 194.361 371.806 193.609 369.14 193.86C366.14 194.27 363.5 196.31 360.47 196.56C356.47 196.9 352.88 194.13 348.91 193.99C347.297 194.006 345.705 194.367 344.243 195.048C342.78 195.729 341.48 196.715 340.43 197.94C338.342 200.402 336.793 203.274 335.88 206.37C334.309 211.069 333.452 215.977 333.34 220.93C333.28 223.72 333.02 227.2 330.44 228.24C330.5 228.979 330.5 229.721 330.44 230.46C333.04 229.46 333.3 225.94 333.36 223.14C333.472 218.187 334.328 213.278 335.9 208.58C336.813 205.481 338.362 202.606 340.45 200.14C341.503 198.919 342.803 197.936 344.265 197.256C345.728 196.577 347.318 196.217 348.93 196.2C352.93 196.34 356.53 199.1 360.49 198.77C363.49 198.52 366.15 196.47 369.16 196.07C371.826 195.818 374.49 196.571 376.63 198.18C378.744 199.784 380.596 201.707 382.12 203.88C387.57 211.07 392.01 219.5 392.27 228.52C393.4 229.35 395.03 228.27 395.59 226.99C396.15 225.71 396.17 224.21 396.87 222.99C397.69 221.58 399.27 220.83 400.5 219.77C403.62 217.08 404.4 212.55 404.28 208.44C404.28 208.31 404.28 208.18 404.28 208.06C404.09 211.62 403.14 215.25 400.48 217.55Z" fill="black"/>
<path opacity="0.1" d="M326.66 216.84C324.36 214.31 321.22 212.62 319.11 209.94C317.333 207.568 316.319 204.712 316.2 201.75C315.885 205.451 316.919 209.141 319.11 212.14C321.22 214.83 324.36 216.52 326.66 219.05C328.868 221.525 330.194 224.662 330.43 227.97C330.583 225.957 330.328 223.933 329.68 222.02C329.033 220.108 328.005 218.346 326.66 216.84Z" fill="black"/>
<path opacity="0.1" d="M406.23 186.65C405.64 189.1 404.59 191.43 404.11 193.9C403.826 195.551 403.722 197.227 403.8 198.9C403.834 197.947 403.937 196.998 404.11 196.06C404.59 193.58 405.64 191.26 406.23 188.81C406.574 187.459 406.686 186.059 406.56 184.67C406.498 185.337 406.388 185.999 406.23 186.65Z" fill="black"/>
</g>
<path d="M461.6 379.67C461.6 379.67 457.66 379.12 457.66 373.38C457.66 367.64 454.84 356.92 454.84 356.92C454.84 356.87 452.4 338.25 449.03 335.29C445.66 332.33 441.33 314.95 441.33 314.95C441.33 314.95 440.59 305.52 439.08 303.49C437.57 301.46 435.53 296.49 432.52 289.4C429.51 282.31 416.96 277.4 416.96 277.4C416.96 277.4 394.27 264.24 387.84 259.95C387.256 259.598 386.709 259.185 386.21 258.72C385.09 257.25 380.21 257.22 380.21 257.22C379.7 254 379.21 250.3 379.05 246.95C379.05 246.59 379.05 246.23 379 245.87C386.17 241.632 391.57 234.95 394.21 227.05C394.33 226.67 394.43 226.27 394.54 225.89C394.97 225.749 395.365 225.519 395.701 225.216C396.037 224.913 396.305 224.543 396.49 224.13C397.07 222.84 397.08 221.33 397.8 220.13C398.64 218.71 400.24 217.95 401.5 216.88C404.68 214.18 405.5 209.63 405.35 205.49C405.25 202.14 404.71 198.76 404.92 195.43L404.98 194.59C405.04 194.09 405.11 193.59 405.2 193.11C405.69 190.63 406.76 188.29 407.36 185.83C407.96 183.37 408.02 180.6 406.62 178.48C404.57 175.37 400.3 174.75 396.55 174.43C392.3 174.07 388.5 174.54 385.78 171.01C384.507 169.165 383.075 167.435 381.5 165.84C380.94 165.32 375.5 162 375.5 161.78C370.191 159.321 364.172 158.859 358.55 160.48C355.73 161.3 353.07 162.64 350.21 163.31C344.04 164.77 336.94 163.19 331.7 166.72C328.78 168.72 327.03 171.9 325.39 175C324.057 177.553 322.703 180.103 321.33 182.65C319.12 186.84 316.87 191.1 315.94 195.74C315.744 196.75 315.624 197.773 315.58 198.8V198.85C315.58 199.22 315.58 199.59 315.58 199.96V200.43C315.58 200.78 315.58 201.12 315.64 201.43C315.7 201.74 315.69 201.84 315.72 202.05C315.75 202.26 315.8 202.73 315.86 203.05C315.92 203.37 316.04 203.93 316.16 204.37C316.21 204.56 316.28 204.74 316.34 204.92C316.44 205.26 316.56 205.59 316.69 205.92C316.76 206.09 316.83 206.27 316.91 206.44C317.06 206.79 317.24 207.13 317.42 207.44C317.5 207.58 317.56 207.71 317.64 207.84C317.919 208.305 318.226 208.753 318.56 209.18C320.7 211.85 323.85 213.55 326.18 216.05C326.18 216.15 326.18 216.25 326.18 216.34C326.18 216.62 326.18 216.89 326.18 217.17C326.304 222.746 327.788 228.206 330.503 233.078C333.218 237.949 337.083 242.083 341.76 245.12C341.76 245.5 341.81 245.89 341.83 246.27C342.025 249.238 341.988 252.217 341.72 255.18C341.313 254.7 340.803 254.318 340.228 254.062C339.654 253.806 339.029 253.682 338.4 253.7C337.97 253.679 337.54 253.716 337.12 253.81L337.03 253.74V253.83C334.83 254.37 332.12 256.66 329.53 263.17C329.53 263.17 321.65 272.05 315.65 271.68C309.65 271.31 294.46 280.92 294.46 280.92C294.46 280.92 279.64 290.54 276.46 300.34C274.683 305.897 272.552 311.335 270.08 316.62L251.76 354.37L248.38 384.32C248.38 384.32 250.25 397.64 249.88 399.67C249.51 401.7 257.57 420.01 257.57 420.01C257.57 420.01 284.2 466.8 295.08 469.2L295.86 468.65C296.326 468.893 296.819 469.078 297.33 469.2L299.57 467.62C299.705 469.381 299.648 471.151 299.4 472.9C297.9 477.52 299.96 507.67 302.58 513.58C305.2 519.49 304.27 596.98 304.27 596.98L303.9 603.82C303.9 603.82 303.9 604.04 303.99 604.42L303.9 606.04L304.17 606.18C304.45 608.35 304.359 610.551 303.9 612.69C302.96 615.69 302.58 624.17 302.58 624.17C302.58 624.17 295.09 672.05 298.64 681.67C302.19 691.29 305.21 701.83 305.21 701.83C305.21 701.83 308.96 713.83 305.39 715.88C301.82 717.93 291.67 721.37 293.76 726.37C295.66 730.99 302.87 743.37 303.94 745.18L303.85 746.13L302.38 762.06C302.618 764.163 303.188 766.216 304.07 768.14C305.68 771.61 308.81 775.21 314.76 774.82C315.76 774.75 316.92 774.63 318.04 774.48C328.93 773.02 342.34 768.16 342.34 768.16C341.644 767.718 341.006 767.19 340.44 766.59C339.905 766.072 339.481 765.45 339.194 764.762C338.906 764.074 338.762 763.335 338.77 762.59C338.93 759.69 333.5 745.87 332.15 742.47C331.94 741.98 331.83 741.7 331.83 741.7C331.83 741.7 344.21 728.76 342.15 717.29C342.15 717.29 328.45 709.29 332.96 704.9C337.47 700.51 345.53 687.9 345.53 687.9C345.53 687.9 345.9 640.75 345.53 633.71C345.144 628.824 345.376 623.908 346.22 619.08C346.37 618.35 346.55 617.64 346.74 616.94C352.977 617.871 359.274 618.349 365.58 618.37C367.88 618.37 370.22 618.37 372.58 618.23C372.58 618.897 372.61 619.617 372.67 620.39C373.19 632.07 374.16 652.55 374.95 660.16C376.07 671.07 382.26 700.47 382.26 700.47C382.26 700.47 370.45 708.05 384.32 726.73C384.32 726.73 384.32 733.5 383.4 734.48C382.418 737.684 381.626 740.943 381.03 744.24C380.45 747.76 380.21 751.32 381.15 753.17C383.4 757.59 396.9 757.23 396.9 757.23L397.23 757.17C399.779 756.907 402.354 757.152 404.807 757.892C407.26 758.632 409.542 759.851 411.52 761.48C416.65 765.6 436.12 763.79 446.66 762.48C450.79 761.96 453.55 761.48 453.55 761.48C453.684 761.013 453.731 760.525 453.69 760.04C453.58 757.45 451.55 751.77 437.79 746.7C437.79 746.7 424.85 738 425.03 730.42H424.76H423.26C424.35 730.36 425.05 730.42 425.05 730.42C425.05 730.42 419.98 711.92 422.05 710.42C424.12 708.92 417.92 688.42 417.92 688.42C417.92 688.42 414.37 654.02 414.18 651.61C414.188 649.542 414.501 647.486 415.11 645.51L414.18 626.65C414.18 626.65 414 620.38 414.18 618.34C414.15 616.569 414.006 614.802 413.75 613.05C413.66 612.35 413.57 611.62 413.47 610.9C418.32 609.67 421.47 608.53 421.47 608.53L420.91 542.88C425.03 534.88 425.79 517.33 425.77 504.88C425.77 496.88 425.41 490.96 425.41 490.96L431.04 481.77C431.04 481.77 432.34 470.77 430.28 468.36C429.37 467.27 429.78 466.14 430.53 465.21C430.92 464.901 431.331 464.62 431.76 464.37C431.76 464.37 431.7 464.28 431.63 464.15C432.023 463.822 432.441 463.524 432.88 463.26C432.88 463.26 430.88 460.16 432.67 458.85C434.35 459.99 435.85 460.85 436.99 461.55C436.91 462.28 436.83 462.7 436.83 462.7L437.31 461.7C438.41 462.32 439.08 462.7 439.08 462.7C439.08 462.7 447.9 445.13 447.71 442.54C447.52 439.95 453.71 429.04 453.71 429.04C453.71 429.04 454.46 423.31 457.84 420.91C461.22 418.51 460.46 401.12 460.46 401.12C460.46 401.12 461.4 392.06 463.65 388.36C465.9 384.66 461.6 379.67 461.6 379.67ZM292.84 371.96L293.01 376.15C292.01 374.54 291.29 373.38 291.29 373.38L292.84 371.96Z" fill="url(#paint0_linear)"/>
<path d="M439.56 455.11L437.4 464.31C437.4 464.31 420.1 455.48 416.98 444.26C413.86 433.04 422.2 428.78 422.2 428.78L438.32 435.61L439.56 455.11Z" fill="white"/>
<path opacity="0.1" d="M439.56 455.11L437.4 464.31C437.4 464.31 420.1 455.48 416.98 444.26C413.86 433.04 422.2 428.78 422.2 428.78L438.32 435.61L439.56 455.11Z" fill="black"/>
<path d="M342.47 768.22C342.47 768.22 326.47 774.1 315.47 774.84C309.63 775.23 306.56 771.65 304.98 768.2C304.117 766.282 303.56 764.241 303.33 762.15L304.76 746.3L305.52 737.86L328.89 731.79L332.2 741.91L332.51 742.68C333.84 746.06 339.17 759.81 339.01 762.68C339.004 763.415 339.145 764.144 339.427 764.822C339.709 765.501 340.125 766.116 340.65 766.63C341.187 767.235 341.798 767.77 342.47 768.22Z" fill="white"/>
<path d="M451.76 760.16C451.8 760.641 451.753 761.126 451.62 761.59C451.62 761.59 417.4 767.3 410.4 761.59C408.426 759.922 406.126 758.685 403.646 757.958C401.166 757.231 398.562 757.031 396 757.37C396 757.37 382.76 757.73 380.55 753.37C379.63 751.54 379.87 747.99 380.44 744.49C381.021 741.21 381.796 737.968 382.76 734.78L383.29 734.36L386.44 731.83L423.32 730.74H423.6C423.42 738.28 436.12 746.93 436.12 746.93C449.61 751.93 451.6 757.58 451.76 760.16Z" fill="white"/>
<path opacity="0.1" d="M451.76 760.16C451.795 760.642 451.744 761.126 451.61 761.59C451.61 761.59 417.4 767.3 410.4 761.59C408.428 759.923 406.129 758.687 403.651 757.96C401.173 757.233 398.57 757.032 396.01 757.37C396.01 757.37 382.76 757.73 380.56 753.37C379.64 751.53 379.87 747.99 380.44 744.49C385.54 745 393.59 746.27 396.75 749.3C401.53 753.91 409.63 758.51 414.6 758.87C418.49 759.12 441.76 759.86 451.76 760.16Z" fill="black"/>
<path opacity="0.1" d="M342.47 768.22C342.47 768.22 326.47 774.1 315.47 774.84C309.63 775.23 306.56 771.65 304.99 768.19C309.06 769.56 314.71 771 317.68 769.68C321.2 768.12 333.68 767.11 340.68 766.68C341.213 767.263 341.814 767.78 342.47 768.22Z" fill="black"/>
<path d="M366.21 294.37C353.01 289.24 336.03 272.29 340.27 264.37C341.212 262.371 341.771 260.214 341.92 258.01C342.193 255.018 342.233 252.009 342.04 249.01C341.743 244.099 341.152 239.21 340.27 234.37C340.27 234.37 381.48 235.3 379.08 241.37C378.38 243.15 378.27 246.24 378.46 249.7C378.65 253.16 379.15 257.07 379.67 260.38C380.39 264.92 381.11 268.38 381.11 268.38C381.11 268.38 378.59 271.91 377.11 272.1C375.63 272.29 385.15 301.68 366.21 294.37Z" fill="#CF6F80"/>
<path opacity="0.1" d="M332.48 742.68L332.17 743.02C319.85 728.12 304.95 746.69 304.95 746.69L304.73 746.3L305.49 737.86L328.86 731.79L332.17 741.91L332.48 742.68Z" fill="black"/>
<path opacity="0.1" d="M423.61 731.79C423.61 731.79 414.61 731.6 409.81 735.84C405.01 740.08 381.81 736.76 382.81 735.84C383.106 735.384 383.285 734.862 383.33 734.32L386.48 731.79L423.36 730.7C423.5 731.37 423.61 731.79 423.61 731.79Z" fill="black"/>
<path d="M347.81 614.78C347.14 616.437 346.631 618.155 346.29 619.91C345.456 624.716 345.224 629.607 345.6 634.47C345.97 641.47 345.6 688.38 345.6 688.38C345.6 688.38 337.69 700.89 333.28 705.3C328.87 709.71 342.28 717.63 342.28 717.63C344.28 729.03 332.16 741.91 332.16 741.91C319.84 727.01 304.94 745.59 304.94 745.59C304.94 745.59 296.84 731.59 294.82 726.59C292.8 721.59 302.73 718.13 306.22 716.1C309.71 714.07 306.05 702.1 306.05 702.1C306.05 702.1 303.1 691.61 299.6 682.04C296.1 672.47 303.46 624.83 303.46 624.83C303.46 624.83 303.84 616.37 304.75 613.42C305.209 611.291 305.3 609.1 305.02 606.94C304.96 606.21 304.89 605.6 304.84 605.19C304.79 604.78 304.75 604.59 304.75 604.59L304.89 604.35L309.89 595.03C309.89 595.03 350.21 608.91 347.81 614.78Z" fill="#6C63FF"/>
<path d="M423.61 730.69C423.61 730.69 414.61 730.5 409.81 734.69C405.01 738.88 381.81 735.61 382.81 734.69C383.81 733.77 383.73 726.96 383.73 726.96C370.12 708.38 381.73 700.84 381.73 700.84C381.73 700.84 375.65 671.59 374.55 660.74C373.78 653.16 372.83 632.79 372.32 621.16C372.1 616.16 371.97 612.72 371.97 612.72L383.09 610.48L384.52 610.19L411.34 604.81C411.34 604.81 412.08 609.81 412.58 613.9C412.829 615.646 412.97 617.406 413 619.17C412.82 621.17 413 627.43 413 627.43L413.91 646.2C413.315 648.169 413.009 650.213 413 652.27C413.18 654.66 416.67 688.88 416.67 688.88C416.67 688.88 422.74 709.3 420.67 710.77C418.6 712.24 423.61 730.69 423.61 730.69Z" fill="#6C63FF"/>
<path opacity="0.1" d="M379.08 241.37C378.38 243.15 378.27 246.24 378.46 249.7C372.94 253.024 366.594 254.723 360.152 254.603C353.71 254.483 347.432 252.548 342.04 249.02C341.743 244.106 341.152 239.214 340.27 234.37C340.27 234.37 381.48 235.28 379.08 241.37Z" fill="black"/>
<path d="M395.01 219.27C395.018 222.874 394.451 226.455 393.33 229.88C390.825 237.554 385.687 244.095 378.826 248.347C371.964 252.599 363.82 254.288 355.833 253.117C347.847 251.945 340.531 247.988 335.18 241.944C329.828 235.901 326.786 228.16 326.59 220.09C326.59 219.81 326.59 219.55 326.59 219.27C326.512 214.728 327.34 210.215 329.025 205.996C330.709 201.777 333.217 197.935 336.402 194.696C339.587 191.456 343.385 188.883 347.575 187.126C351.764 185.37 356.262 184.465 360.805 184.465C365.348 184.465 369.846 185.37 374.035 187.126C378.225 188.883 382.023 191.456 385.208 194.696C388.393 197.935 390.901 201.777 392.585 205.996C394.27 210.215 395.098 214.728 395.02 219.27H395.01Z" fill="#CF6F80"/>
<path opacity="0.1" d="M366.21 294.37C353.01 289.24 336.03 272.29 340.27 264.37C341.212 262.371 341.771 260.214 341.92 258.01L359.99 272.86L371.17 282.03L379.67 260.39C380.39 264.93 381.11 268.39 381.11 268.39C381.11 268.39 378.59 271.92 377.11 272.11C375.63 272.3 385.15 301.68 366.21 294.37Z" fill="black"/>
<path d="M412.94 360L397.85 613.5L378.17 614.79L327.21 467.8L335.57 293.29L337.33 256.42L359.99 275.03L371.18 284.2L379.93 261.93L396.2 276.11L412.94 360Z" fill="#6C63FF"/>
<path opacity="0.1" d="M347.81 614.78C347.14 616.437 346.631 618.155 346.29 619.91C331.97 617.699 318.062 613.354 305.03 607.02L304.76 606.88L304.85 605.27L304.9 604.43L309.9 595.11C309.9 595.11 350.21 608.91 347.81 614.78Z" fill="black"/>
<path opacity="0.1" d="M383.32 619.95C379.659 620.573 375.967 620.993 372.26 621.21C372.04 616.21 371.91 612.77 371.91 612.77L383.03 610.53L383.32 619.95Z" fill="black"/>
<path opacity="0.1" d="M412.52 613.95C405.41 615.8 394.43 617.88 384.6 616.58L384.46 610.24L411.28 604.86C411.28 604.86 412.02 609.81 412.52 613.95Z" fill="black"/>
<path opacity="0.1" d="M384.42 617.74C343.42 624.74 305.87 604.67 305.87 604.67L306.23 597.87C306.23 597.87 307.16 520.78 304.58 514.87C302 508.96 299.99 478.99 301.45 474.39C302.91 469.79 296.12 400.81 296.12 400.81L295.02 372.81L254.76 356.5L272.76 318.98C275.191 313.72 277.282 308.308 279.02 302.78C282.15 293.04 296.68 283.47 296.68 283.47C296.68 283.47 311.58 273.91 317.47 274.27C323.36 274.63 331.08 265.81 331.08 265.81C336.78 251.28 341.94 257.86 341.94 257.86C341.94 258.55 341.94 257.86 341.66 260.01C339.66 275.96 374 326.36 374.49 327.25L377.76 406.91L381.07 507.72L384.42 617.74Z" fill="black"/>
<path d="M383.32 617.74C342.32 624.74 304.76 604.67 304.76 604.67L305.13 597.87C305.13 597.87 306.06 520.78 303.47 514.87C300.88 508.96 298.88 478.99 300.35 474.39C301.82 469.79 295.02 400.81 295.02 400.81L293.91 372.81L253.63 356.44L271.63 318.92C274.056 313.657 276.147 308.246 277.89 302.72C281.01 292.98 295.55 283.41 295.55 283.41C295.55 283.41 310.45 273.85 316.33 274.21C322.21 274.57 329.94 265.75 329.94 265.75C335.65 251.22 341.94 257.8 341.94 257.8C341.94 258.49 341.34 258.8 341.66 259.95C346.06 275.42 372.9 326.3 373.39 327.19L376.7 406.85L380.01 507.66L383.32 617.74Z" fill="white"/>
<path opacity="0.1" d="M372.27 329.46C367.86 327.62 344.5 300.95 344.5 300.95V294.88C343.65 292.88 338.6 294.1 334.5 295.5L336.26 258.63L338.26 260.29C342.64 275.75 371.76 328.57 372.27 329.46Z" fill="black"/>
<path d="M373.38 327.25C368.96 325.41 345.6 298.74 345.6 298.74V292.67C344.75 290.67 339.7 291.89 335.6 293.29L337.37 256.42L339.37 258.08C343.76 273.54 372.89 326.37 373.38 327.25Z" fill="white"/>
<path opacity="0.1" d="M305.87 460.26C306.42 460.26 334.38 457.32 334.38 457.32C334.38 457.32 351.31 490.61 350.2 498.71C349.09 506.81 347.08 513.98 340.27 512.71C333.46 511.44 303.62 513.71 303.62 513.71L305.87 460.26Z" fill="black"/>
<path d="M304.76 458.05C305.31 458.05 333.27 455.11 333.27 455.11C333.27 455.11 350.19 488.41 349.09 496.5C347.99 504.59 345.96 511.77 339.16 510.5C332.36 509.23 302.51 511.5 302.51 511.5L304.76 458.05Z" fill="white"/>
<path d="M325.83 442.42C325.83 442.42 351.49 456.21 352.04 460.42C352.59 464.63 338.98 458.58 336.04 457.85C334.105 457.384 332.135 457.076 330.15 456.93L310.54 457.46L325.83 442.42Z" fill="#CF6F80"/>
<path opacity="0.1" d="M365.11 331.18C366.601 331.18 367.81 329.971 367.81 328.48C367.81 326.989 366.601 325.78 365.11 325.78C363.619 325.78 362.41 326.989 362.41 328.48C362.41 329.971 363.619 331.18 365.11 331.18Z" fill="black"/>
<path d="M365.11 330.08C366.601 330.08 367.81 328.871 367.81 327.38C367.81 325.889 366.601 324.68 365.11 324.68C363.619 324.68 362.41 325.889 362.41 327.38C362.41 328.871 363.619 330.08 365.11 330.08Z" fill="#3F3D56"/>
<path opacity="0.1" d="M370.08 448.06C371.571 448.06 372.78 446.851 372.78 445.36C372.78 443.869 371.571 442.66 370.08 442.66C368.589 442.66 367.38 443.869 367.38 445.36C367.38 446.851 368.589 448.06 370.08 448.06Z" fill="black"/>
<path d="M370.08 446.95C371.571 446.95 372.78 445.741 372.78 444.25C372.78 442.759 371.571 441.55 370.08 441.55C368.589 441.55 367.38 442.759 367.38 444.25C367.38 445.741 368.589 446.95 370.08 446.95Z" fill="#3F3D56"/>
<path opacity="0.1" d="M367.8 389.62C369.291 389.62 370.5 388.411 370.5 386.92C370.5 385.429 369.291 384.22 367.8 384.22C366.309 384.22 365.1 385.429 365.1 386.92C365.1 388.411 366.309 389.62 367.8 389.62Z" fill="black"/>
<path d="M367.8 388.52C369.291 388.52 370.5 387.311 370.5 385.82C370.5 384.329 369.291 383.12 367.8 383.12C366.309 383.12 365.1 384.329 365.1 385.82C365.1 387.311 366.309 388.52 367.8 388.52Z" fill="#3F3D56"/>
<path d="M430.04 456.37C430.04 456.37 431.88 459.13 430.04 460.42C428.2 461.71 430.22 464.83 430.22 464.83C430.22 464.83 425.63 467.52 427.65 469.94C429.67 472.36 428.39 483.29 428.39 483.29L422.87 492.43C422.87 492.43 423.2 498.32 423.22 506.28C423.22 518.7 422.49 536.16 418.45 544.12L419.01 609.43C419.01 609.43 399.68 616.49 383.5 614.34L381.1 509.54C381.1 509.54 384.6 450.11 385.89 438.71C386.645 432.792 386.952 426.825 386.81 420.86C386.81 420.86 386.26 403.02 384.41 394.74C384.41 394.74 382.41 358.87 382.21 348.94C382.12 344.19 382.37 330.33 382.65 317.15C382.96 302.74 383.31 289.15 383.31 289.15L379.66 260.27C379.66 260.27 383.31 259.9 384.41 261.37C384.903 261.83 385.439 262.242 386.01 262.6C392.31 266.86 414.57 279.96 414.57 279.96C414.57 279.96 426.89 284.86 429.84 291.88C432.79 298.9 434.84 303.88 436.27 305.88C437.7 307.88 438.48 317.28 438.48 317.28C438.48 317.28 442.72 334.58 446.03 337.51C449.34 340.44 451.76 359.08 451.76 359.08L422.51 382.08C422.51 382.08 419.94 420.34 419.39 421.82C418.84 423.3 430.04 456.37 430.04 456.37Z" fill="white"/>
<path d="M431.15 456.37C431.15 456.37 432.98 459.13 431.15 460.42C429.32 461.71 431.32 464.83 431.32 464.83C431.32 464.83 426.76 467.55 428.76 469.97C430.76 472.39 429.5 483.32 429.5 483.32L423.98 492.46C423.98 492.46 424.31 498.35 424.34 506.31C424.34 518.73 423.61 536.19 419.57 544.15L420.12 609.46C420.12 609.46 400.76 616.52 384.6 614.37L382.21 509.57C382.21 509.57 385.71 450.14 387 438.74C387.756 432.822 388.06 426.854 387.91 420.89C387.91 420.89 387.36 403.05 385.52 394.77C385.52 394.77 383.52 358.9 383.31 348.97C383.22 344.22 383.48 330.36 383.75 317.18C384.06 302.77 384.41 289.18 384.41 289.18L379.59 259.91C379.59 259.91 384.41 259.91 385.52 261.4C386.008 261.866 386.544 262.278 387.12 262.63C393.42 266.89 415.69 279.99 415.69 279.99C415.69 279.99 428 284.89 430.95 291.91C433.9 298.93 435.95 303.91 437.39 305.91C438.83 307.91 439.59 317.31 439.59 317.31C439.59 317.31 443.83 334.61 447.14 337.54C450.45 340.47 452.84 359.07 452.84 359.07L423.59 382.07C423.59 382.07 421.02 420.33 420.46 421.81C419.9 423.29 431.15 456.37 431.15 456.37Z" fill="white"/>
<path opacity="0.1" d="M396.12 297.67L398.76 305.37L384.86 319.37C385.17 304.97 385.52 291.37 385.52 291.37L380.7 262.1C380.7 262.1 385.52 262.1 386.63 263.59C387.117 264.054 387.653 264.464 388.23 264.81L400.05 298.91L396.12 297.67Z" fill="black"/>
<path d="M395.01 295.46L397.66 303.16L383.76 317.16C384.07 302.75 384.42 289.16 384.42 289.16L379.59 259.89C379.59 259.89 384.42 259.89 385.52 261.38C386.01 261.843 386.547 262.255 387.12 262.61L398.95 296.7L395.01 295.46Z" fill="white"/>
<path opacity="0.1" d="M395.01 219.27C395.018 222.874 394.451 226.455 393.33 229.88C393.141 229.91 392.948 229.901 392.763 229.854C392.577 229.808 392.403 229.725 392.25 229.61C391.99 220.61 387.56 212.16 382.11 204.97C380.58 202.799 378.725 200.877 376.61 199.27C374.472 197.664 371.812 196.912 369.15 197.16C366.15 197.57 363.5 199.61 360.47 199.87C356.47 200.2 352.89 197.43 348.92 197.29C347.306 197.305 345.714 197.665 344.25 198.344C342.786 199.024 341.484 200.007 340.43 201.23C338.344 203.697 336.795 206.572 335.88 209.67C334.308 214.368 333.451 219.277 333.34 224.23C333.29 227.03 333.02 230.54 330.42 231.56C330.616 229.501 330.382 227.423 329.733 225.459C329.084 223.495 328.034 221.687 326.65 220.15L326.59 220.09C326.59 219.81 326.59 219.55 326.59 219.27C326.512 214.728 327.34 210.215 329.025 205.996C330.709 201.777 333.217 197.935 336.402 194.696C339.587 191.456 343.385 188.883 347.575 187.126C351.764 185.37 356.262 184.465 360.805 184.465C365.348 184.465 369.846 185.37 374.035 187.126C378.225 188.883 382.023 191.456 385.208 194.696C388.393 197.935 390.901 201.777 392.585 205.996C394.27 210.215 395.098 214.728 395.02 219.27H395.01Z" fill="black"/>
<path d="M374.97 164.94C369.774 162.496 363.863 162.033 358.35 163.64C355.58 164.46 352.97 165.79 350.16 166.46C344.16 167.91 337.16 166.34 332.01 169.85C329.15 171.85 327.43 175.01 325.83 178.08L321.83 185.7C319.65 189.87 317.45 194.11 316.54 198.7C315.63 203.29 316.18 208.43 319.09 212.12C321.21 214.81 324.34 216.5 326.64 219.03C328.018 220.569 329.063 222.376 329.71 224.337C330.357 226.299 330.592 228.373 330.4 230.43C333.01 229.43 333.26 225.91 333.32 223.11C333.431 218.157 334.288 213.248 335.86 208.55C336.773 205.451 338.322 202.576 340.41 200.11C341.464 198.888 342.767 197.905 344.231 197.226C345.695 196.547 347.286 196.187 348.9 196.17C352.9 196.31 356.49 199.07 360.45 198.74C363.45 198.49 366.11 196.44 369.13 196.04C371.793 195.788 374.454 196.541 376.59 198.15C378.704 199.754 380.556 201.677 382.08 203.85C387.54 211.04 391.97 219.47 392.23 228.49C393.36 229.32 394.99 228.24 395.55 226.96C396.11 225.68 396.13 224.18 396.84 222.96C397.66 221.55 399.23 220.8 400.46 219.74C403.58 217.05 404.36 212.52 404.24 208.41C404.12 204.3 403.32 200.13 404.1 196.09C404.57 193.61 405.63 191.29 406.21 188.84C406.79 186.39 406.86 183.64 405.49 181.53C403.49 178.43 399.28 177.82 395.61 177.53C391.44 177.17 387.71 177.63 385.05 174.12C383.801 172.288 382.396 170.569 380.85 168.98C380.32 168.46 374.97 165.16 374.97 164.94Z" fill="#512E4E"/>
<path opacity="0.1" d="M266.28 375.82L255.83 356.5L252.52 386.31C252.52 386.31 254.36 399.55 253.99 401.58C253.62 403.61 261.53 421.81 261.53 421.81C261.53 421.81 287.66 468.35 298.33 470.75L334.38 444.99L324.82 432.85C324.82 432.85 321.51 431.56 320.68 432.85C320.68 432.85 302.93 402.31 301.09 400.1C299.25 397.89 299.61 393.48 299.61 393.48C299.61 393.48 296.85 390.54 297.77 387.78C298.69 385.02 292.44 375.45 292.44 375.45L298.14 370.12L266.28 375.82Z" fill="black"/>
<path d="M256.38 354.3L253.62 356.5L250.31 386.31C250.31 386.31 252.15 399.55 251.78 401.58C251.41 403.61 259.33 421.81 259.33 421.81C259.33 421.81 285.45 468.35 296.12 470.75L332.18 444.99L322.61 432.85C322.61 432.85 319.3 431.56 318.47 432.85C318.47 432.85 300.72 402.31 298.88 400.1C297.04 397.89 297.41 393.48 297.41 393.48C297.41 393.48 294.65 390.54 295.57 387.78C296.49 385.02 290.23 375.45 290.23 375.45L295.93 370.12L256.38 354.3Z" fill="white"/>
<path opacity="0.1" d="M427.65 471.08C429.65 473.51 428.39 484.42 428.39 484.42L422.87 493.56C422.87 493.56 423.2 499.46 423.22 507.41L413.94 510.31C413.101 510.572 412.212 510.63 411.347 510.478C410.481 510.326 409.665 509.97 408.965 509.439C408.265 508.907 407.703 508.216 407.324 507.423C406.946 506.63 406.763 505.758 406.79 504.88L408.39 453.27L430.04 461.55C428.2 462.83 430.22 465.97 430.22 465.97C430.22 465.97 425.63 468.65 427.65 471.08Z" fill="black"/>
<path d="M428.76 469.97C430.76 472.4 429.5 483.32 429.5 483.32L423.98 492.46C423.98 492.46 424.31 498.35 424.34 506.31L414.89 509.26C414.069 509.515 413.198 509.571 412.351 509.421C411.504 509.272 410.705 508.923 410.02 508.402C409.335 507.882 408.785 507.206 408.414 506.429C408.044 505.653 407.864 504.8 407.89 503.94L409.5 452.17L431.16 460.45C429.31 461.73 431.33 464.86 431.33 464.86C431.33 464.86 426.76 467.55 428.76 469.97Z" fill="white"/>
<path d="M435.93 445.37C435.93 445.37 434.46 454.76 430.78 455.31C427.1 455.86 425.45 470.5 421.78 469.98C418.11 469.46 420.54 456.37 420.67 453.83C420.8 451.29 416.67 440.77 419.76 438.38C422.85 435.99 432.63 438.38 432.63 438.38L435.93 445.37Z" fill="#CF6F80"/>
<path opacity="0.1" d="M443.76 373.06L450.7 359.06C450.7 359.06 453.46 369.73 453.46 375.43C453.46 381.13 457.32 381.69 457.32 381.69C457.32 381.69 461.55 386.69 459.32 390.33C457.09 393.97 456.19 403.03 456.19 403.03C456.19 403.03 456.92 420.32 453.61 422.71C450.3 425.1 449.61 430.81 449.61 430.81C449.61 430.81 443.53 441.66 443.72 444.24C443.91 446.82 435.26 464.29 435.26 464.29C435.26 464.29 439.49 442.58 414.84 433.2C414.84 433.2 414.65 425.83 416.49 423.81C418.33 421.79 421.2 420.87 419.4 410.66C417.6 400.45 418.88 388.25 418.88 385.8C418.88 383.35 424.4 368.07 424.4 368.07L443.76 373.06Z" fill="black"/>
<path d="M446.76 357.06L452.82 359.06C452.82 359.06 455.59 369.73 455.59 375.43C455.59 381.13 459.45 381.69 459.45 381.69C459.45 381.69 463.68 386.69 461.45 390.33C459.22 393.97 458.33 403.03 458.33 403.03C458.33 403.03 459.06 420.32 455.75 422.71C452.44 425.1 451.7 430.81 451.7 430.81C451.7 430.81 445.63 441.66 445.82 444.24C446.01 446.82 437.35 464.29 437.35 464.29C437.35 464.29 441.59 442.58 416.93 433.2C416.93 433.2 416.75 425.83 418.59 423.81C420.43 421.79 423.3 420.87 421.5 410.66C419.7 400.45 420.98 388.25 420.98 385.8C420.98 383.35 426.5 368.07 426.5 368.07L446.76 357.06Z" fill="white"/>
<path opacity="0.1" d="M312.91 719.93C312.91 719.93 322.57 713.86 328.91 718.27C335.25 722.68 312.91 719.93 312.91 719.93Z" fill="black"/>
<path opacity="0.1" d="M132.73 760.59C186.545 760.59 230.17 753.583 230.17 744.94C230.17 736.297 186.545 729.29 132.73 729.29C78.9154 729.29 35.29 736.297 35.29 744.94C35.29 753.583 78.9154 760.59 132.73 760.59Z" fill="#6C63FF"/>
<path d="M135.87 445.14H129.6V586.31H135.87V445.14Z" fill="#535461"/>
<path d="M175.27 585.88L174.88 592.24L174.32 601.24L174.09 604.98L173.54 613.98L173.3 617.72L172.74 626.72L166.42 728.79C166.145 733.182 164.208 737.304 161.001 740.317C157.794 743.33 153.56 745.008 149.16 745.01H116.3C111.901 745.008 107.668 743.33 104.463 740.316C101.258 737.303 99.3223 733.181 99.05 728.79L92.76 626.65L92.2 617.65L91.97 613.91L91.41 604.91L91.18 601.17L90.62 592.17L90.22 585.81C90.1506 584.586 90.3319 583.361 90.753 582.209C91.1741 581.058 91.826 580.004 92.6687 579.114C93.5115 578.223 94.5273 577.514 95.6539 577.031C96.7804 576.547 97.994 576.298 99.22 576.3H166.43C167.651 576.311 168.858 576.571 169.975 577.066C171.091 577.561 172.095 578.279 172.923 579.177C173.752 580.075 174.387 581.133 174.791 582.286C175.194 583.438 175.358 584.662 175.27 585.88Z" fill="#3F3D56"/>
<path d="M174.88 592.24L174.32 601.21H91.14L90.58 592.24H174.88Z" fill="#9D9CB5"/>
<path d="M174.09 604.95L173.54 613.93H91.93L91.37 604.95H174.09Z" fill="#9D9CB5"/>
<path d="M173.3 617.68L172.75 626.65H92.72L92.16 617.68H173.3Z" fill="#9D9CB5"/>
<path d="M81.01 498.05C117.52 524.47 132.76 565.79 132.76 565.79C132.76 565.79 88.76 564.28 52.24 537.86C15.72 511.44 0.51001 470.13 0.51001 470.13C0.51001 470.13 44.49 471.63 81.01 498.05Z" fill="#6C63FF"/>
<path d="M0.47998 470.13C0.47998 470.13 46.16 495.48 60.81 516.47C75.46 537.46 132.76 565.79 132.76 565.79" stroke="#535461" stroke-width="2" stroke-miterlimit="10"/>
<path d="M104.58 444.83C124.45 459.2 132.76 481.69 132.76 481.69C132.76 481.69 108.81 480.87 88.93 466.5C69.05 452.13 60.76 429.63 60.76 429.63C60.76 429.63 84.7 430.45 104.58 444.83Z" fill="#6C63FF"/>
<path d="M60.76 429.63C60.76 429.63 85.62 443.43 93.59 454.85C101.56 466.27 132.76 481.69 132.76 481.69" stroke="#535461" stroke-width="2" stroke-miterlimit="10"/>
<path d="M161.61 480.55C138.78 505.64 133.95 538.43 133.95 538.43C133.95 538.43 166.14 530.53 188.95 505.43C211.76 480.33 216.61 447.55 216.61 447.55C216.61 447.55 184.44 455.46 161.61 480.55Z" fill="#6C63FF"/>
<path d="M216.63 447.56C216.63 447.56 186.89 473.28 179.33 491C171.77 508.72 133.95 538.43 133.95 538.43" stroke="#535461" stroke-width="2" stroke-miterlimit="10"/>
<path d="M705.86 51.42H705.11C675.27 51.42 648.88 67.21 633.7 90.51C618.52 67.21 592.13 51.42 562.29 51.42H561.54C539.146 51.6335 517.741 60.6761 501.977 76.5828C486.212 92.4895 477.362 113.975 477.35 136.37C477.35 164.18 489.53 203.64 513.28 236.11C558.53 297.98 633.7 352.11 633.7 352.11C633.7 352.11 708.87 297.99 754.11 236.11C777.87 203.64 790.04 164.18 790.04 136.37C790.028 113.977 781.179 92.4927 765.417 76.5863C749.655 60.6798 728.252 51.6361 705.86 51.42ZM695.13 240.87C691.732 240.857 688.417 239.817 685.62 237.886C682.824 235.955 680.676 233.223 679.46 230.05H661.62C660.445 230.043 659.302 229.669 658.35 228.98C657.398 228.292 656.685 227.323 656.31 226.21L650.83 209.7L633.49 270.29C633.152 271.456 632.445 272.482 631.475 273.212C630.505 273.942 629.324 274.338 628.11 274.34H627.76C626.493 274.279 625.285 273.785 624.339 272.94C623.393 272.096 622.765 270.952 622.56 269.7L604.69 162.22L591.63 225.82C591.331 227.028 590.635 228.101 589.655 228.868C588.674 229.635 587.465 230.051 586.22 230.05H561.09C560.337 230.082 559.585 229.961 558.879 229.695C558.174 229.428 557.53 229.022 556.985 228.5C556.441 227.979 556.008 227.352 555.712 226.659C555.416 225.965 555.264 225.219 555.264 224.465C555.264 223.711 555.416 222.965 555.712 222.271C556.008 221.578 556.441 220.951 556.985 220.43C557.53 219.908 558.174 219.502 558.879 219.235C559.585 218.969 560.337 218.848 561.09 218.88H581.82L600.32 133.37C600.624 132.106 601.357 130.986 602.395 130.203C603.433 129.42 604.71 129.021 606.009 129.075C607.308 129.13 608.548 129.633 609.517 130.501C610.486 131.368 611.123 132.545 611.32 133.83L629.57 243.47L645.11 189.26C645.434 188.118 646.118 187.112 647.06 186.391C648.003 185.67 649.153 185.273 650.34 185.26H650.45C651.625 185.26 652.77 185.632 653.722 186.321C654.674 187.011 655.384 187.983 655.75 189.1L665.66 218.91H679.24C680.206 215.977 681.963 213.367 684.318 211.369C686.673 209.372 689.534 208.063 692.585 207.589C695.637 207.115 698.76 207.493 701.611 208.681C704.461 209.87 706.927 211.823 708.738 214.325C710.548 216.826 711.632 219.78 711.87 222.859C712.108 225.938 711.491 229.023 710.086 231.773C708.681 234.523 706.544 236.832 703.91 238.444C701.276 240.057 698.248 240.91 695.16 240.91L695.13 240.87Z" fill="#6C63FF"/>
<path opacity="0.2" d="M965.59 776.3C1032.74 776.3 1087.18 769.293 1087.18 760.65C1087.18 752.007 1032.74 745 965.59 745C898.438 745 844 752.007 844 760.65C844 769.293 898.438 776.3 965.59 776.3Z" fill="#6C63FF"/>
<path d="M934.045 445.177H815.366V572.959H934.045V445.177Z" fill="#CCCCCC"/>
<path d="M876.27 729.032L874.231 755.872C874.139 757.087 874.318 758.307 874.755 759.45C875.193 760.593 875.879 761.632 876.768 762.499C877.657 763.366 878.728 764.039 879.909 764.475C881.091 764.91 882.355 765.097 883.618 765.024L897.935 764.189C898.598 764.15 899.244 763.971 899.828 763.664C900.411 763.358 900.917 762.931 901.31 762.415C901.703 761.899 901.973 761.306 902.101 760.678C902.229 760.05 902.212 759.403 902.051 758.782L894.104 728.174L876.27 729.032Z" fill="white"/>
<path d="M997.011 745.163C1013.86 748.958 1025.9 754.353 1033.81 761.654C1036.62 764.234 1040.31 765.755 1044.19 765.94C1049.15 766.191 1053.2 765.656 1056.25 764.345H1056.25C1057.03 764.014 1057.7 763.487 1058.2 762.82C1058.7 762.153 1059 761.37 1059.08 760.552C1059.17 759.721 1059.03 758.882 1058.68 758.121C1058.32 757.359 1057.75 756.704 1057.04 756.224L1017.08 728.844L1000.11 735.383L996.148 739.196C995.719 739.609 995.396 740.112 995.203 740.665C995.011 741.219 994.954 741.808 995.038 742.386C995.121 742.964 995.343 743.516 995.685 743.998C996.028 744.48 996.482 744.878 997.011 745.163H997.011Z" fill="white"/>
<path d="M944.169 306.689L829.942 305.671C830.229 289.65 834.1 273.919 842.561 259.842C848.119 250.596 847.999 240.534 846.659 232.057C844.593 218.976 849.399 205.591 860.078 197.264C868.239 190.889 878.539 187.608 889.038 188.037L891.256 188.126C898.481 188.416 905.515 190.448 911.711 194.036C917.908 197.625 923.069 202.655 926.721 208.665C930.432 215.081 931.929 222.466 930.994 229.755C930.27 236.613 932.003 243.541 936.055 250.534C943.046 265.892 944.56 285.543 944.169 306.689Z" fill="#512E4E"/>
<path d="M1020.59 730.014L998.174 735.645L889.007 506.639L895.83 730.014H873.412C849.456 624.922 806.206 503.635 825.651 465.343L941.641 458.773L1020.59 730.014Z" fill="#6C63FF"/>
<path d="M888.033 268.246C904.72 268.246 918.249 255.22 918.249 239.151C918.249 223.082 904.72 210.056 888.033 210.056C871.345 210.056 857.817 223.082 857.817 239.151C857.817 255.22 871.345 268.246 888.033 268.246Z" fill="#FFB9B9"/>
<path d="M914.35 292.649L864.64 289.833C869.511 279.066 871.457 268.698 869.513 258.861H906.552C906.468 266.414 910.372 279.48 914.35 292.649Z" fill="#FFB9B9"/>
<path d="M945.54 467.22L836.374 474.729L847.583 288.427L866.59 283.264L888.033 287.957L909.476 277.633L923.122 282.326L945.54 467.22Z" fill="#6C63FF"/>
<path d="M854.893 601.432L780.328 585.008C802.5 514.21 842.444 352.245 829.55 294.526L868.539 277.633L854.893 601.432Z" fill="white"/>
<path d="M818.829 396.828L790.562 379.934L814.668 311.951C817.357 304.936 822.507 299.046 829.227 295.299L837.348 290.772L832.474 359.286L818.829 396.828Z" fill="white"/>
<path d="M1010.36 585.947C986.824 599.057 927.996 606.366 902.166 597.209C900.265 533.243 896.538 352.305 908.501 275.756L951.389 292.65L947.49 343.331C926.986 386.687 986.524 537.694 1010.36 585.947Z" fill="white"/>
<path d="M1006.95 388.382L980.629 379.935L945.54 341.453L951.389 292.649L1009.87 371.487L1006.95 388.382Z" fill="white"/>
<path d="M924.469 424.912C924.9 426.731 926.062 428.312 927.702 429.308C929.341 430.303 931.323 430.632 933.214 430.223L955.554 425.351L952.325 411.621L929.985 416.491C928.094 416.904 926.451 418.023 925.416 419.602C924.382 421.181 924.041 423.091 924.469 424.912V424.912Z" fill="#FFB9B9"/>
<path d="M914.35 231.643C897.567 224.998 880.991 224.517 864.64 230.705L857.817 207.241H920.198L914.35 231.643Z" fill="#512E4E"/>
<path d="M944.565 409.03L957.237 431.555C978.549 425.832 997.02 407.787 1014.74 386.505L1009.87 371.488L979.655 378.997L944.565 409.03Z" fill="white"/>
<path d="M935.306 362.571H931.407C931.407 309.473 920.054 272.47 908.989 272.47L908.014 268.716C917.937 268.716 924.263 284.116 927.823 297.036C932.649 314.551 935.306 337.825 935.306 362.571Z" fill="#3F3D56"/>
<path d="M845.633 349.431H841.734C841.734 300.802 853.166 270.593 870 270.593L869.026 274.347C857.382 274.347 845.633 297.564 845.633 349.431Z" fill="#3F3D56"/>
<path d="M933.357 372.895C938.74 372.895 943.104 368.693 943.104 363.509C943.104 358.326 938.74 354.124 933.357 354.124C927.974 354.124 923.61 358.326 923.61 363.509C923.61 368.693 927.974 372.895 933.357 372.895Z" fill="#3F3D56"/>
<path d="M830.038 371.957H826.139C826.139 358.502 834.01 347.555 843.684 347.555V351.309C836.159 351.309 830.038 360.572 830.038 371.957Z" fill="#3F3D56"/>
<path d="M861.228 371.957H857.329C857.329 360.572 851.208 351.309 843.683 351.309V347.555C853.358 347.555 861.228 358.502 861.228 371.957Z" fill="#3F3D56"/>
<path d="M859.279 376.649C861.432 376.649 863.178 374.968 863.178 372.894C863.178 370.821 861.432 369.14 859.279 369.14C857.126 369.14 855.38 370.821 855.38 372.894C855.38 374.968 857.126 376.649 859.279 376.649Z" fill="#3F3D56"/>
<path d="M828.088 376.649C830.241 376.649 831.987 374.968 831.987 372.894C831.987 370.821 830.241 369.14 828.088 369.14C825.935 369.14 824.189 370.821 824.189 372.894C824.189 374.968 825.935 376.649 828.088 376.649Z" fill="#3F3D56"/>
<path d="M779.353 338.373L803.679 342.555L859.279 418.68L829.741 411.988L779.353 338.373Z" fill="#6C63FF"/>
<path d="M775.038 337.44C774.667 337.446 774.305 337.547 773.989 337.733C773.672 337.92 773.414 338.184 773.241 338.5C773.067 338.815 772.985 339.17 773.002 339.526C773.02 339.883 773.137 340.228 773.34 340.527L825.312 416.456C825.602 416.881 826.05 417.182 826.564 417.298L850.745 422.776C851.153 422.869 851.58 422.84 851.97 422.693C852.36 422.546 852.695 422.288 852.93 421.954C853.164 421.62 853.288 421.225 853.284 420.822C853.28 420.419 853.149 420.026 852.908 419.696L795.846 341.571C795.691 341.358 795.494 341.176 795.266 341.037C795.039 340.897 794.785 340.802 794.519 340.757L775.428 337.474C775.299 337.452 775.169 337.441 775.038 337.44V337.44Z" fill="#3F3D56"/>
<path d="M807.458 391.73L808.903 405.739L831.696 403.561C833.626 403.376 835.4 402.461 836.629 401.017C837.858 399.573 838.44 397.718 838.249 395.861C838.057 394.003 837.107 392.294 835.608 391.111C834.108 389.928 832.182 389.367 830.252 389.551L807.458 391.73Z" fill="#FFB9B9"/>
<path d="M787.638 390.108C787.671 394.885 789.664 399.455 793.181 402.824C796.699 406.192 801.457 408.086 806.418 408.091H810.166L812.894 386.196L790.302 378.365L787.638 390.108Z" fill="white"/>
</g>
<defs>
<linearGradient id="paint0_linear" x1="356.33" y1="774.87" x2="356.33" y2="159.53" gradientUnits="userSpaceOnUse">
<stop stop-color="#808080" stop-opacity="0.25"/>
<stop offset="0.54" stop-color="#808080" stop-opacity="0.12"/>
<stop offset="1" stop-color="#808080" stop-opacity="0.1"/>
</linearGradient>
<clipPath id="clip0">
<rect width="1105.04" height="782.74" fill="white"/>
</clipPath>
</defs>
</svg>
