<svg width="890" height="196" viewBox="0 0 890 196" fill="none" xmlns="http://www.w3.org/2000/svg">
<path d="M75.9952 60H75.7458C65.8219 60 57.0455 65.2513 51.9971 73.0001C46.9487 65.2513 38.1722 60 28.2484 60H27.9989C20.5514 60.071 13.4327 63.0783 8.18996 68.3683C2.94722 73.6584 0.00404295 80.8038 0 88.2517C0 97.5004 4.05068 110.624 11.9492 121.422C26.9979 141.998 51.9971 160 51.9971 160C51.9971 160 76.9962 142.001 92.0416 121.422C99.9434 110.624 103.991 97.5004 103.991 88.2517C103.987 80.8044 101.044 73.6595 95.802 68.3695C90.56 63.0795 83.4422 60.0718 75.9952 60V60ZM72.4267 123.005C71.2965 123.001 70.1941 122.655 69.264 122.013C68.334 121.37 67.6199 120.462 67.2154 119.407H61.2824C60.8917 119.404 60.5115 119.28 60.1949 119.051C59.8783 118.822 59.6411 118.5 59.5164 118.13L57.694 112.639L51.9272 132.789C51.8149 133.177 51.5798 133.518 51.2572 133.761C50.9346 134.004 50.5418 134.136 50.138 134.136H50.0216C49.6003 134.116 49.1986 133.951 48.8839 133.671C48.5691 133.39 48.3603 133.009 48.2922 132.593L42.3493 96.8486L38.0059 118C37.9063 118.402 37.675 118.759 37.3489 119.014C37.0228 119.269 36.6207 119.407 36.2067 119.407H27.8493C27.5987 119.417 27.3487 119.377 27.1141 119.289C26.8795 119.2 26.6652 119.065 26.4842 118.891C26.3032 118.718 26.1591 118.509 26.0607 118.279C25.9623 118.048 25.9116 117.8 25.9116 117.549C25.9116 117.299 25.9623 117.05 26.0607 116.82C26.1591 116.589 26.3032 116.381 26.4842 116.207C26.6652 116.034 26.8795 115.899 27.1141 115.81C27.3487 115.721 27.5987 115.681 27.8493 115.692H34.7434L40.8959 87.254C40.9969 86.8335 41.2408 86.4612 41.586 86.2007C41.9311 85.9402 42.356 85.8076 42.788 85.8257C43.22 85.8437 43.6324 86.0113 43.9545 86.2998C44.2767 86.5882 44.4886 86.9796 44.5542 87.407L50.6236 123.87L55.7917 105.841C55.8993 105.462 56.1268 105.127 56.4403 104.887C56.7538 104.647 57.1364 104.515 57.531 104.511H57.5676C57.9584 104.511 58.3393 104.635 58.6558 104.864C58.9723 105.093 59.2083 105.417 59.3302 105.788L62.626 115.702H67.1422C67.4633 114.726 68.0477 113.858 68.8309 113.194C69.6141 112.53 70.5656 112.095 71.5805 111.937C72.5953 111.779 73.634 111.905 74.5819 112.3C75.5299 112.695 76.3501 113.345 76.9522 114.177C77.5543 115.009 77.9148 115.991 77.9939 117.015C78.0731 118.039 77.8677 119.065 77.4006 119.98C76.9335 120.894 76.2227 121.662 75.3468 122.198C74.4708 122.735 73.4638 123.018 72.4367 123.018L72.4267 123.005Z" fill="#6C63FF"/>
<path d="M210.848 73.144C226.4 73.144 234.176 82.408 234.176 100.936V139.96C234.176 141.784 233.648 143.224 232.592 144.28C231.536 145.24 230.144 145.72 228.416 145.72C226.688 145.72 225.248 145.24 224.096 144.28C223.04 143.224 222.512 141.784 222.512 139.96V101.224C222.512 94.792 221.36 90.136 219.056 87.256C216.752 84.376 213.152 82.936 208.256 82.936C202.4 82.936 197.792 84.904 194.432 88.84C191.072 92.776 189.392 98.104 189.392 104.824V139.96C189.392 141.784 188.816 143.224 187.664 144.28C186.608 145.24 185.216 145.72 183.488 145.72C181.76 145.72 180.368 145.24 179.312 144.28C178.256 143.224 177.728 141.784 177.728 139.96V101.224C177.728 94.792 176.576 90.136 174.272 87.256C171.968 84.376 168.32 82.936 163.328 82.936C157.568 82.936 152.96 84.904 149.504 88.84C146.144 92.776 144.464 98.104 144.464 104.824V139.96C144.464 141.784 143.936 143.224 142.88 144.28C141.824 145.24 140.432 145.72 138.704 145.72C136.976 145.72 135.536 145.24 134.384 144.28C133.328 143.224 132.8 141.784 132.8 139.96V79.192C132.8 77.464 133.328 76.072 134.384 75.016C135.536 73.96 136.976 73.432 138.704 73.432C140.336 73.432 141.68 73.96 142.736 75.016C143.792 75.976 144.32 77.32 144.32 79.048V85.96C146.432 81.832 149.36 78.664 153.104 76.456C156.848 74.248 161.168 73.144 166.064 73.144C177.008 73.144 184.16 77.752 187.52 86.968C189.536 82.744 192.608 79.384 196.736 76.888C200.864 74.392 205.568 73.144 210.848 73.144ZM309.713 128.728C310.769 128.728 311.681 129.16 312.449 130.024C313.217 130.888 313.601 131.992 313.601 133.336C313.601 135.736 311.921 137.944 308.561 139.96C305.105 141.976 301.457 143.512 297.617 144.568C293.777 145.528 290.033 146.008 286.385 146.008C275.537 146.008 266.945 142.792 260.609 136.36C254.369 129.928 251.249 121.048 251.249 109.72C251.249 102.52 252.641 96.184 255.425 90.712C258.209 85.144 262.097 80.824 267.089 77.752C272.177 74.68 277.937 73.144 284.369 73.144C293.489 73.144 300.737 76.12 306.113 82.072C311.489 88.024 314.177 96.088 314.177 106.264C314.177 108.184 313.793 109.576 313.025 110.44C312.257 111.304 311.009 111.736 309.281 111.736H262.913C263.777 128.248 271.601 136.504 286.385 136.504C290.129 136.504 293.345 136.024 296.033 135.064C298.721 134.008 301.601 132.616 304.673 130.888C307.169 129.448 308.849 128.728 309.713 128.728ZM284.513 82.216C278.369 82.216 273.425 84.136 269.681 87.976C266.033 91.816 263.873 97.24 263.201 104.248H303.953C303.761 97.144 301.985 91.72 298.625 87.976C295.265 84.136 290.561 82.216 284.513 82.216ZM387.667 42.76C389.491 42.76 390.931 43.288 391.987 44.344C393.043 45.4 393.571 46.744 393.571 48.376V139.96C393.571 141.688 393.043 143.08 391.987 144.136C390.931 145.192 389.491 145.72 387.667 145.72C385.843 145.72 384.403 145.192 383.347 144.136C382.387 143.08 381.907 141.688 381.907 139.96V132.184C379.795 136.6 376.675 140.008 372.547 142.408C368.515 144.808 363.763 146.008 358.291 146.008C352.147 146.008 346.723 144.472 342.019 141.4C337.315 138.328 333.667 134.056 331.075 128.584C328.483 123.016 327.187 116.584 327.187 109.288C327.187 102.088 328.483 95.752 331.075 90.28C333.667 84.808 337.315 80.584 342.019 77.608C346.723 74.632 352.147 73.144 358.291 73.144C363.763 73.144 368.515 74.344 372.547 76.744C376.675 79.144 379.795 82.552 381.907 86.968V48.376C381.907 46.648 382.387 45.304 383.347 44.344C384.403 43.288 385.843 42.76 387.667 42.76ZM360.595 136.36C367.411 136.36 372.643 134.056 376.291 129.448C380.035 124.744 381.907 118.12 381.907 109.576C381.907 101.032 380.035 94.456 376.291 89.848C372.643 85.24 367.411 82.936 360.595 82.936C353.779 82.936 348.451 85.24 344.611 89.848C340.867 94.456 338.995 100.936 338.995 109.288C338.995 117.832 340.867 124.504 344.611 129.304C348.451 134.008 353.779 136.36 360.595 136.36Z" fill="#253368"/>
<path d="M451.08 73.144C457.224 73.144 462.648 74.68 467.352 77.752C472.056 80.824 475.704 85.144 478.296 90.712C480.888 96.184 482.184 102.568 482.184 109.864C482.184 117.16 480.888 123.544 478.296 129.016C475.704 134.392 472.056 138.568 467.352 141.544C462.744 144.52 457.32 146.008 451.08 146.008C445.608 146.008 440.808 144.808 436.68 142.408C432.648 140.008 429.576 136.6 427.464 132.184V166.024C427.464 167.752 426.936 169.096 425.88 170.056C424.92 171.112 423.528 171.64 421.704 171.64C419.88 171.64 418.44 171.112 417.384 170.056C416.328 169 415.8 167.656 415.8 166.024V79.192C415.8 77.464 416.328 76.072 417.384 75.016C418.44 73.96 419.88 73.432 421.704 73.432C423.528 73.432 424.92 73.96 425.88 75.016C426.936 76.072 427.464 77.464 427.464 79.192V86.968C429.576 82.552 432.648 79.144 436.68 76.744C440.808 74.344 445.608 73.144 451.08 73.144ZM448.776 136.36C455.592 136.36 460.872 134.056 464.616 129.448C468.36 124.84 470.232 118.312 470.232 109.864C470.232 101.416 468.36 94.84 464.616 90.136C460.872 85.336 455.592 82.936 448.776 82.936C441.96 82.936 436.68 85.24 432.936 89.848C429.288 94.456 427.464 101.032 427.464 109.576C427.464 118.12 429.288 124.744 432.936 129.448C436.68 134.056 441.96 136.36 448.776 136.36ZM505.517 145.72C503.789 145.72 502.349 145.24 501.197 144.28C500.141 143.224 499.613 141.784 499.613 139.96V48.52C499.613 46.696 500.141 45.304 501.197 44.344C502.349 43.288 503.789 42.76 505.517 42.76C507.149 42.76 508.493 43.288 509.549 44.344C510.701 45.304 511.277 46.696 511.277 48.52V139.96C511.277 141.784 510.701 143.224 509.549 144.28C508.493 145.24 507.149 145.72 505.517 145.72ZM561.737 73.144C579.305 73.144 588.089 82.36 588.089 100.792V139.96C588.089 141.688 587.561 143.08 586.505 144.136C585.545 145.192 584.201 145.72 582.473 145.72C580.745 145.72 579.353 145.192 578.297 144.136C577.241 143.08 576.713 141.688 576.713 139.96V133.048C574.889 137.176 572.105 140.392 568.361 142.696C564.617 144.904 560.297 146.008 555.401 146.008C550.889 146.008 546.713 145.096 542.873 143.272C539.129 141.448 536.153 138.904 533.945 135.64C531.737 132.376 530.633 128.776 530.633 124.84C530.633 119.56 531.977 115.48 534.665 112.6C537.353 109.624 541.769 107.512 547.913 106.264C554.057 104.92 562.601 104.248 573.545 104.248H576.713V99.496C576.713 93.736 575.513 89.512 573.113 86.824C570.809 84.136 567.017 82.792 561.737 82.792C555.209 82.792 548.585 84.568 541.865 88.12C539.273 89.752 537.449 90.568 536.393 90.568C535.241 90.568 534.281 90.136 533.513 89.272C532.745 88.408 532.361 87.304 532.361 85.96C532.361 84.616 532.745 83.464 533.513 82.504C534.377 81.448 535.721 80.392 537.545 79.336C540.905 77.416 544.697 75.928 548.921 74.872C553.241 73.72 557.513 73.144 561.737 73.144ZM556.985 136.792C562.745 136.792 567.449 134.872 571.097 131.032C574.841 127.096 576.713 122.056 576.713 115.912V111.736H574.121C565.673 111.736 559.241 112.12 554.825 112.888C550.409 113.56 547.241 114.76 545.321 116.488C543.497 118.12 542.585 120.568 542.585 123.832C542.585 127.576 543.929 130.696 546.617 133.192C549.401 135.592 552.857 136.792 556.985 136.792ZM644.721 73.144C661.521 73.144 669.921 82.408 669.921 100.936V139.96C669.921 141.784 669.393 143.224 668.337 144.28C667.377 145.24 665.985 145.72 664.161 145.72C662.337 145.72 660.897 145.24 659.841 144.28C658.785 143.224 658.257 141.784 658.257 139.96V101.656C658.257 95.128 656.961 90.376 654.369 87.4C651.873 84.424 647.841 82.936 642.273 82.936C635.841 82.936 630.705 84.904 626.865 88.84C623.025 92.776 621.105 98.104 621.105 104.824V139.96C621.105 141.784 620.577 143.224 619.521 144.28C618.561 145.24 617.169 145.72 615.345 145.72C613.521 145.72 612.081 145.24 611.025 144.28C609.969 143.224 609.441 141.784 609.441 139.96V79.192C609.441 77.464 609.969 76.072 611.025 75.016C612.081 73.96 613.521 73.432 615.345 73.432C617.073 73.432 618.417 73.96 619.377 75.016C620.433 76.072 620.961 77.416 620.961 79.048V86.392C623.265 82.072 626.481 78.808 630.609 76.6C634.737 74.296 639.441 73.144 644.721 73.144ZM726.564 73.144C743.364 73.144 751.764 82.408 751.764 100.936V139.96C751.764 141.784 751.236 143.224 750.18 144.28C749.22 145.24 747.828 145.72 746.004 145.72C744.18 145.72 742.74 145.24 741.684 144.28C740.628 143.224 740.1 141.784 740.1 139.96V101.656C740.1 95.128 738.804 90.376 736.212 87.4C733.716 84.424 729.684 82.936 724.116 82.936C717.684 82.936 712.548 84.904 708.708 88.84C704.868 92.776 702.948 98.104 702.948 104.824V139.96C702.948 141.784 702.42 143.224 701.364 144.28C700.404 145.24 699.012 145.72 697.188 145.72C695.364 145.72 693.924 145.24 692.868 144.28C691.812 143.224 691.284 141.784 691.284 139.96V79.192C691.284 77.464 691.812 76.072 692.868 75.016C693.924 73.96 695.364 73.432 697.188 73.432C698.916 73.432 700.26 73.96 701.22 75.016C702.276 76.072 702.804 77.416 702.804 79.048V86.392C705.108 82.072 708.324 78.808 712.452 76.6C716.58 74.296 721.284 73.144 726.564 73.144ZM827.416 128.728C828.472 128.728 829.384 129.16 830.152 130.024C830.92 130.888 831.304 131.992 831.304 133.336C831.304 135.736 829.624 137.944 826.264 139.96C822.808 141.976 819.16 143.512 815.32 144.568C811.48 145.528 807.736 146.008 804.088 146.008C793.24 146.008 784.648 142.792 778.312 136.36C772.072 129.928 768.952 121.048 768.952 109.72C768.952 102.52 770.344 96.184 773.128 90.712C775.912 85.144 779.8 80.824 784.792 77.752C789.88 74.68 795.64 73.144 802.072 73.144C811.192 73.144 818.44 76.12 823.816 82.072C829.192 88.024 831.88 96.088 831.88 106.264C831.88 108.184 831.496 109.576 830.728 110.44C829.96 111.304 828.712 111.736 826.984 111.736H780.616C781.48 128.248 789.304 136.504 804.088 136.504C807.832 136.504 811.048 136.024 813.736 135.064C816.424 134.008 819.304 132.616 822.376 130.888C824.872 129.448 826.552 128.728 827.416 128.728ZM802.216 82.216C796.072 82.216 791.128 84.136 787.384 87.976C783.736 91.816 781.576 97.24 780.904 104.248H821.656C821.464 97.144 819.688 91.72 816.328 87.976C812.968 84.136 808.264 82.216 802.216 82.216ZM883.77 73.432C887.802 73.144 889.818 74.776 889.818 78.328C889.818 79.864 889.386 81.112 888.522 82.072C887.658 82.936 886.17 83.464 884.058 83.656L879.738 84.088C873.306 84.664 868.506 86.968 865.338 91C862.266 94.936 860.73 99.592 860.73 104.968V139.96C860.73 141.88 860.202 143.32 859.146 144.28C858.09 145.24 856.698 145.72 854.97 145.72C853.242 145.72 851.802 145.24 850.65 144.28C849.594 143.224 849.066 141.784 849.066 139.96V79.192C849.066 77.368 849.642 75.976 850.794 75.016C851.946 73.96 853.338 73.432 854.97 73.432C856.506 73.432 857.802 73.96 858.858 75.016C859.914 75.976 860.442 77.32 860.442 79.048V87.112C862.458 82.888 865.29 79.672 868.938 77.464C872.682 75.256 876.954 73.96 881.754 73.576L883.77 73.432Z" fill="#6C63FF"/>
</svg>
